<?xml version="1.0" standalone="no"?>
<!DOCTYPE svg PUBLIC "-//W3C//DTD SVG 20010904//EN"
 "http://www.w3.org/TR/2001/REC-SVG-20010904/DTD/svg10.dtd">
<svg version="1.0" xmlns="http://www.w3.org/2000/svg"
 width="300.000000pt" height="168.000000pt" viewBox="0 0 300.000000 168.000000"
 preserveAspectRatio="xMidYMid meet">
<metadata>
Created by potrace 1.10, written by Peter Selinger 2001-2011
</metadata>
<g transform="translate(0.000000,168.000000) scale(0.100000,-0.100000)"
fill="#000000" stroke="none">
<path d="M745 1603 c4 -43 10 -127 16 -188 12 -145 12 -137 -11 -130 -28 9
-58 -3 -65 -25 -4 -12 -17 -20 -37 -22 -46 -4 -46 -25 1 -33 22 -4 45 -12 51
-20 6 -7 20 -10 32 -7 19 5 18 6 -8 17 l-29 12 23 12 c12 7 20 16 17 22 -4 5
-1 9 4 9 6 0 11 -4 11 -10 0 -5 5 -10 10 -10 6 0 10 7 10 16 0 8 6 22 14 30
15 14 15 19 1 233 l-6 84 33 -8 c68 -15 92 -12 99 15 12 44 16 16 25 -190 4
-85 8 -157 10 -159 23 -27 32 154 17 347 l-6 82 -35 0 c-34 0 -34 0 -30 -41 4
-41 4 -41 -27 -35 -16 4 -47 9 -67 13 -34 5 -38 9 -38 34 0 16 -5 29 -10 29
-7 0 -9 -27 -5 -77z"/>
<path d="M2726 1619 c-7 -69 -7 -130 0 -113 3 6 10 48 18 92 10 63 10 82 1 82
-7 0 -15 -24 -19 -61z"/>
<path d="M1991 1537 c1 -40 2 -40 9 -12 5 20 8 -9 9 -82 1 -109 0 -112 -21
-115 -15 -2 -24 -11 -26 -25 -3 -22 -70 -73 -97 -73 -18 0 -20 -17 -2 -23 6
-2 17 3 23 11 16 22 46 24 66 5 17 -15 16 -33 -2 -33 -5 0 -6 8 -3 18 6 15 5
15 -10 4 -9 -8 -21 -11 -27 -7 -5 3 -10 1 -10 -4 0 -6 8 -11 18 -11 9 0 26 -7
36 -15 11 -8 25 -15 30 -15 6 0 5 4 -2 9 -18 11 6 63 27 59 30 -6 25 -53 -9
-81 l-30 -26 27 3 c16 1 27 8 25 14 -1 7 4 15 12 18 8 3 12 12 10 19 -3 7 -1
16 4 19 6 3 12 -1 16 -9 3 -8 12 -15 21 -15 27 0 16 -18 -16 -25 -21 -5 -29
-11 -25 -21 4 -10 2 -12 -6 -8 -8 5 -9 2 -5 -9 5 -13 1 -16 -15 -14 -15 1 -23
-4 -26 -18 -2 -16 -1 -17 7 -5 9 13 11 12 11 -6 0 -27 -10 -36 -25 -24 -9 8
-14 6 -19 -5 -3 -9 -19 -16 -38 -16 l-33 -2 35 -7 35 -7 -33 -14 c-18 -9 -30
-18 -27 -21 9 -9 -16 -108 -27 -108 -6 0 -8 6 -5 14 3 8 -4 22 -15 33 -21 18
-21 18 -10 -3 6 -12 9 -24 5 -27 -6 -6 27 -43 36 -40 2 1 10 17 16 35 7 20 17
32 25 30 8 -2 12 -1 8 3 -4 4 2 22 13 41 10 19 19 45 19 57 0 17 2 19 9 8 7
-11 19 -4 55 34 25 26 46 50 46 54 0 3 13 20 30 37 16 18 26 35 23 38 -4 3 -1
6 5 6 22 0 43 -56 32 -86 -8 -20 -13 -24 -24 -15 -10 8 -16 8 -24 -1 -12 -16
-8 -76 6 -90 6 -6 8 -16 6 -23 -3 -7 -1 -16 5 -20 7 -3 8 0 5 9 -8 20 31 23
40 4 3 -7 3 -3 1 8 -4 17 1 24 24 34 17 7 32 10 35 9 9 -6 33 34 38 63 4 20
-1 33 -18 49 -17 16 -24 34 -24 60 0 27 -6 42 -21 52 -26 18 -59 11 -59 -14 0
-10 -4 -21 -10 -24 -5 -3 -10 -1 -10 4 0 15 -16 14 -32 -2 -14 -15 -42 -11
-32 4 3 5 2 9 -3 8 -21 -4 -32 3 -38 22 -4 13 -12 18 -22 15 -8 -3 -24 -1 -36
6 l-21 11 23 8 c12 5 20 13 17 18 -3 5 1 12 10 15 8 3 13 10 9 15 -3 5 -1 12
5 16 5 3 10 27 10 53 0 60 8 71 49 69 25 -2 35 -7 37 -21 5 -34 -19 -201 -30
-209 -6 -4 0 -7 14 -5 18 2 25 9 26 25 1 13 4 70 8 128 l7 105 -60 0 -61 0 0
36 c0 31 2 35 15 24 13 -10 15 -9 16 11 1 21 2 20 9 -6 4 -16 8 -23 9 -13 1
11 9 15 26 13 14 -1 25 3 26 9 0 6 4 2 9 -9 7 -17 9 -17 9 -2 1 22 21 23 21 0
0 -15 2 -14 15 3 15 18 15 18 8 0 -4 -13 -3 -17 5 -12 7 4 12 15 12 24 0 10 3
13 8 7 4 -5 14 -10 22 -10 8 0 18 5 22 10 5 6 8 6 8 -1 0 -6 11 -10 25 -8 26
2 26 2 20 -59 -19 -203 -29 -262 -44 -274 -14 -11 -14 -12 3 -13 18 0 18 -1 1
-20 -17 -19 -16 -20 19 -36 31 -15 39 -16 61 -4 30 16 35 64 8 79 -10 5 -14
13 -10 18 13 12 57 -44 57 -73 0 -13 5 -24 10 -24 6 0 10 5 10 10 0 6 8 10 18
10 9 0 25 12 35 25 l18 25 -36 0 c-19 0 -35 5 -35 10 0 6 -7 10 -15 10 -10 0
-15 10 -15 31 0 26 -3 30 -22 27 -14 -2 -24 -11 -26 -23 -2 -18 -52 -53 -52
-37 0 4 7 68 15 142 8 74 15 150 15 167 l0 33 -165 -1 -165 0 1 -42z m331
-309 c-17 -17 -15 -31 2 -25 10 4 13 1 10 -7 -6 -15 -54 -29 -54 -16 0 10 40
60 48 60 3 0 1 -5 -6 -12z m-108 -34 c21 -8 20 -34 0 -49 -14 -10 -13 -13 10
-28 25 -17 36 -47 17 -47 -5 0 -17 -3 -27 -7 -14 -5 -16 -2 -10 20 4 17 1 31
-10 42 -9 9 -14 19 -10 22 3 3 1 12 -5 19 -19 24 2 41 35 28z m-13 -145 c48
-15 41 -30 -11 -24 -28 2 -37 0 -34 -9 3 -7 -1 -13 -9 -13 -10 0 -16 39 -8 55
2 5 25 2 62 -9z"/>
<path d="M1765 1538 c-2 -7 -22 -74 -43 -148 -39 -133 -40 -135 -70 -138 -23
-2 -30 -8 -29 -23 1 -10 1 -19 2 -19 0 0 23 -8 52 -19 37 -13 54 -16 62 -8 8
8 11 6 11 -6 0 -9 5 -17 10 -17 14 0 13 5 -10 50 -11 22 -26 40 -34 40 -12 0
-4 33 27 110 3 8 15 42 25 75 l19 60 49 -1 c27 -1 58 -4 69 -7 11 -3 22 -6 25
-6 22 -4 31 -20 22 -38 -11 -20 -19 -52 -27 -112 -3 -18 -8 -38 -12 -44 -3 -5
-2 -7 4 -4 5 3 18 32 27 64 10 32 23 68 27 81 5 13 9 34 9 47 0 21 -8 25 -97
45 -54 12 -101 24 -106 27 -4 2 -9 -2 -12 -9z"/>
<path d="M2202 1438 l1 -43 4 38 c2 20 9 37 15 37 5 0 7 -7 4 -16 -3 -8 -2
-12 4 -9 18 11 11 35 -10 35 -17 0 -20 -6 -18 -42z"/>
<path d="M2245 1404 c-5 -45 -4 -79 2 -85 18 -18 30 14 36 89 5 66 4 72 -13
72 -16 0 -19 -11 -25 -76z m20 -32 c-4 -29 -9 -51 -12 -48 -3 2 -2 38 3 78 4
40 10 62 12 49 2 -14 1 -49 -3 -79z"/>
<path d="M2219 1385 c-5 -50 -4 -63 7 -53 3 3 4 28 2 54 l-3 49 -6 -50z"/>
<path d="M1545 1310 c-8 -38 2 -72 21 -68 8 2 15 6 15 11 -1 4 -1 25 -1 47 0
48 -25 56 -35 10z"/>
<path d="M1265 1300 c-9 -27 13 -90 31 -90 16 0 34 39 34 75 0 37 -54 50 -65
15z"/>
<path d="M1380 1295 c-5 -14 -14 -25 -20 -25 -15 0 -12 -27 4 -33 11 -4 13
-16 10 -39 -8 -48 10 -88 35 -81 12 3 21 1 21 -6 0 -16 27 -13 34 4 3 10 -1
15 -12 16 -9 1 -21 2 -27 4 -5 1 -14 3 -19 3 -5 1 -3 9 4 17 7 8 9 15 4 15 -5
0 -9 18 -9 40 -1 26 3 40 12 40 16 0 17 42 1 58 -18 18 -27 15 -38 -13z"/>
<path d="M2553 1302 c-14 -9 -19 -58 -9 -89 5 -17 2 -23 -16 -29 -13 -4 -27
-7 -31 -6 -5 1 -6 -2 -3 -7 6 -9 -23 -38 -33 -33 -3 2 -7 -2 -10 -9 -2 -8 2
-10 13 -6 18 7 22 -8 4 -19 -6 -4 -19 2 -29 14 -17 22 -46 32 -34 12 3 -6 -1
-7 -10 -4 -25 10 -68 -5 -61 -21 3 -8 1 -15 -4 -15 -6 0 -10 -13 -10 -30 0
-24 5 -31 28 -36 54 -12 62 -16 62 -30 0 -8 10 -14 25 -14 30 0 31 -7 7 -38
-15 -19 -26 -23 -62 -20 -43 3 -45 4 -46 37 -1 20 -9 40 -20 48 -16 11 -20 10
-29 -8 -7 -12 -10 -32 -7 -46 5 -27 -10 -43 -42 -43 -18 0 -18 1 -1 20 12 13
15 25 9 37 -7 15 -8 14 -11 -8 -3 -17 -14 -30 -36 -40 -40 -18 -91 -14 -83 7
3 9 -1 14 -14 14 -14 0 -20 7 -21 23 -6 97 -13 98 -44 8 -3 -8 -13 -11 -27 -8
-28 8 -10 -9 21 -18 15 -5 21 -4 17 3 -3 6 -2 13 4 17 5 3 10 0 10 -8 0 -8 10
-19 23 -25 18 -10 9 -11 -51 -8 -40 2 -74 1 -77 -3 -5 -8 128 -33 186 -35 43
-2 58 -16 59 -56 1 -22 2 -23 11 -7 6 10 8 30 5 43 l-7 25 33 -17 c50 -26 108
-35 108 -17 0 10 -6 13 -16 9 -22 -8 -64 4 -64 18 0 9 23 11 88 8 89 -5 158
-20 97 -22 -26 0 -75 -19 -52 -20 5 0 1 -7 -8 -16 -13 -14 -29 -16 -79 -11
-57 5 -66 4 -85 -17 -25 -27 -27 -42 -5 -50 8 -3 12 -10 9 -16 -3 -5 -2 -10 4
-10 5 0 11 5 13 12 5 15 28 1 28 -18 0 -18 -50 -15 -66 4 -8 11 -12 11 -23 -2
-18 -21 -15 -23 44 -31 28 -3 78 -9 113 -14 68 -8 72 -7 72 21 0 18 15 25 23
11 2 -5 3 -3 1 3 -1 7 18 7 60 2 33 -4 85 -10 115 -12 29 -2 57 -10 61 -16 4
-7 13 -11 20 -8 29 9 -22 36 -92 46 -119 18 -166 18 -188 -1 -17 -14 -20 -14
-20 -2 0 8 5 15 11 15 5 0 7 5 3 12 -7 11 8 10 188 -8 26 -2 59 -9 73 -14 45
-17 53 -12 64 38 15 68 -2 82 -115 93 -49 5 -100 10 -113 10 -17 1 -20 3 -10
9 10 7 7 11 -13 19 -32 12 -44 29 -29 44 6 6 11 20 11 32 0 24 18 45 37 45 21
0 15 -39 -11 -65 -24 -24 -24 -24 -4 -31 20 -6 42 12 33 27 -3 3 6 18 20 33
21 23 22 26 6 26 -10 0 -24 7 -31 15 -10 12 -16 13 -28 3 -24 -20 -10 11 33
71 35 48 38 50 88 53 l52 3 0 45 c0 41 -2 45 -24 45 -13 0 -29 -8 -35 -17 -13
-21 -1 -35 18 -19 11 9 15 7 19 -9 4 -18 0 -20 -35 -20 -36 0 -39 2 -33 21 5
15 4 19 -4 15 -6 -4 -11 -1 -11 8 0 10 6 13 15 10 17 -7 38 37 29 61 -7 16
-31 20 -51 7z m-110 -204 c37 -18 34 -25 -8 -20 -21 3 -35 10 -35 18 0 17 8
18 43 2z m37 -48 c0 -19 -42 -27 -91 -16 -74 17 -69 26 14 26 46 0 77 -4 77
-10z m30 -199 c19 -5 70 -11 113 -14 94 -5 112 -17 102 -70 -6 -32 -10 -35
-26 -27 -24 13 -247 43 -271 37 -24 -7 -25 39 -1 65 18 20 33 22 83 9z m-173
-54 c6 -4 18 -4 27 -1 10 4 16 1 17 -7 0 -8 5 -5 10 6 7 15 8 12 4 -15 -13
-79 -17 -91 -32 -86 -8 3 -19 6 -24 6 -5 0 -9 9 -9 20 0 15 7 20 28 20 21 0
24 2 12 10 -8 5 -33 10 -55 10 -82 1 -112 22 -52 38 36 9 57 9 74 -1z"/>
<path d="M1105 1286 c-13 -9 -16 -22 -13 -44 2 -18 1 -32 -4 -32 -13 0 -51 23
-64 39 -15 19 -54 5 -54 -20 0 -12 7 -19 20 -19 23 0 24 -4 9 -31 -7 -13 -16
-18 -28 -14 -12 4 -21 0 -25 -11 -9 -24 8 -38 24 -19 7 8 17 15 22 15 5 0 19
12 32 27 l23 26 1 -36 c1 -26 -3 -37 -16 -40 -9 -3 1 -5 24 -4 36 1 40 3 36
23 -3 15 8 34 37 63 36 36 39 44 29 61 -17 26 -33 31 -53 16z"/>
<path d="M504 1246 c-3 -13 -5 -32 -3 -42 1 -11 -3 -32 -9 -47 -17 -41 -15
-77 4 -77 10 0 14 -6 10 -15 -3 -8 -1 -27 4 -42 4 -15 11 -45 15 -66 8 -52 30
-42 30 14 0 33 -5 46 -19 54 -11 6 -21 15 -23 22 -6 17 37 10 70 -11 18 -12
31 -15 40 -9 17 13 117 15 117 3 0 -5 9 -10 20 -10 43 0 17 -20 -27 -22 -67
-2 -73 -2 -115 7 -37 7 -38 6 -38 -21 0 -18 3 -24 8 -17 6 9 17 10 38 4 27 -7
121 6 167 24 13 5 17 2 17 -12 0 -29 11 -35 37 -18 24 16 78 11 67 -6 -3 -5 0
-8 7 -7 8 2 18 12 24 23 13 25 43 31 51 11 7 -17 4 -25 -25 -71 -11 -16 -20
-45 -20 -62 -1 -18 -6 -33 -12 -33 -6 0 -9 10 -8 23 3 30 -10 57 -25 51 -17
-7 -40 22 -32 41 3 9 0 15 -9 15 -22 0 -28 -19 -11 -36 18 -17 22 -39 6 -29
-5 3 -10 1 -10 -6 0 -6 8 -9 20 -6 21 5 24 -1 14 -26 -4 -10 -17 -13 -50 -11
-24 3 -44 1 -44 -4 0 -7 35 -13 225 -38 36 -5 41 -3 42 16 1 12 -1 20 -4 16
-3 -3 -12 2 -19 12 -12 16 -13 16 -14 -3 0 -17 -2 -17 -10 -5 -6 10 -10 11
-10 3 0 -7 -4 -13 -10 -13 -5 0 -10 7 -10 16 0 8 -4 12 -10 9 -16 -10 -12 0
10 25 18 20 20 21 20 5 0 -10 3 -15 7 -11 4 4 6 24 5 44 -1 27 1 32 6 18 6
-14 11 -16 16 -7 4 6 0 23 -9 38 -19 29 -9 47 28 48 16 0 21 5 19 21 -2 13 3
21 13 21 10 0 14 -6 10 -15 -5 -15 11 -42 25 -42 14 0 21 32 14 66 -5 29 -9
32 -24 24 -10 -6 -28 -10 -39 -10 -12 0 -21 -4 -21 -10 0 -5 -9 -10 -20 -10
-11 0 -20 -4 -20 -9 0 -5 10 -7 23 -4 20 4 20 4 -3 -9 -14 -8 -32 -12 -39 -9
-11 3 -12 6 -3 9 10 3 10 7 1 18 -6 8 -15 11 -20 9 -8 -6 -35 34 -31 48 1 4
-2 7 -8 7 -13 0 -13 -10 5 -60 8 -23 15 -44 15 -46 0 -6 -63 16 -76 27 -8 7
-14 7 -14 1 0 -5 10 -17 23 -25 l22 -16 -27 0 c-16 -1 -28 -5 -28 -11 0 -5 -7
-7 -15 -4 -23 9 -18 24 8 25 14 1 6 6 -23 15 -54 17 -107 71 -116 120 -8 42
-15 43 -37 4 -18 -29 -15 -56 4 -45 5 4 9 1 9 -5 0 -6 10 -15 23 -20 l22 -9
-22 0 c-13 -1 -32 8 -43 19 -25 25 -44 17 -37 -16 2 -13 0 -24 -4 -24 -5 0 -9
5 -9 10 0 5 -3 9 -7 7 -5 -1 -9 2 -10 7 -2 15 -32 28 -51 22 -13 -4 -17 0 -17
20 0 21 4 24 25 22 16 -2 24 2 22 10 -1 8 8 22 22 33 l24 19 -19 40 c-17 35
-24 40 -54 40 -28 0 -36 -4 -41 -24z m67 -66 c-27 -23 -51 -26 -51 -6 0 9 13
16 33 19 17 2 34 4 37 5 3 1 -6 -8 -19 -18z"/>
<path d="M2743 1253 c-4 -10 -19 -28 -34 -41 -17 -14 -26 -29 -22 -38 3 -9 9
-12 12 -7 21 32 84 16 79 -19 -2 -19 -9 -23 -38 -21 -19 0 -27 -1 -17 -4 24
-6 21 -27 -7 -42 -19 -10 -28 -11 -42 -1 -18 11 -18 11 0 6 15 -5 17 -4 7 8
-9 11 -9 15 1 19 10 4 10 7 1 18 -10 10 -16 9 -33 -6 -23 -21 -27 -67 -6 -84
7 -6 11 -22 8 -36 -7 -37 10 -30 38 15 13 22 28 40 32 40 5 0 29 20 53 46 38
39 43 49 38 75 -4 19 -16 35 -34 45 -16 8 -29 17 -29 20 0 2 8 0 19 -5 23 -13
35 -3 20 16 -16 18 -38 16 -46 -4z"/>
<path d="M10 1251 c0 -6 5 -13 10 -16 6 -4 8 -10 6 -14 -3 -4 4 -7 16 -7 23 1
47 -29 34 -41 -5 -4 -11 -2 -13 5 -3 6 -12 12 -21 12 -15 -1 -15 -2 1 -11 14
-8 16 -14 6 -25 -10 -12 -9 -13 4 -8 10 3 20 -3 28 -18 6 -13 13 -25 15 -27 1
-2 17 7 33 19 19 13 31 17 31 9 0 -8 7 -5 20 6 16 14 20 15 21 4 5 -46 -4 -83
-24 -103 -15 -16 -18 -16 -23 -2 -3 9 -13 16 -21 16 -8 0 -11 5 -7 12 5 7 3 8
-5 4 -9 -6 -8 -13 4 -26 15 -16 15 -23 4 -49 -11 -25 -16 -28 -32 -19 -10 5
-21 7 -25 4 -3 -3 0 -6 7 -6 7 0 9 -4 6 -10 -3 -5 -17 -10 -31 -10 -25 0 -61
-26 -51 -36 8 -9 57 8 51 17 -3 5 20 9 51 9 32 0 54 4 50 9 -12 20 103 23 190
6 25 -5 27 -4 14 6 -15 11 -15 14 5 30 11 10 15 18 9 19 -7 0 -13 -5 -13 -10
0 -6 -12 -3 -26 6 -17 12 -21 19 -14 24 8 5 9 10 2 14 -11 6 -25 -21 -17 -33
2 -5 -6 -13 -20 -19 -13 -6 -25 -7 -27 -3 -5 13 -58 23 -58 11 0 -5 -11 -10
-24 -10 -13 0 -26 -5 -28 -12 -3 -8 -6 -9 -11 -1 -4 6 6 17 23 25 16 8 43 31
59 52 28 35 29 40 18 69 -12 29 -26 37 -88 51 -18 4 -31 18 -44 46 -17 37 -21
40 -57 40 -21 0 -38 -4 -38 -9z"/>
<path d="M252 1248 c-17 -17 -15 -63 4 -100 12 -24 18 -28 25 -17 5 8 9 10 9
6 0 -4 9 -3 21 3 11 7 23 9 26 6 8 -8 -18 -37 -27 -31 -5 3 -11 1 -14 -4 -7
-10 22 -24 34 -16 5 3 12 0 16 -6 3 -6 1 -14 -5 -18 -8 -5 -5 -13 9 -26 21
-19 21 -19 15 14 -3 18 -7 36 -8 40 -5 14 42 53 58 47 9 -3 13 -2 10 4 -3 6
-20 10 -36 10 -18 0 -29 5 -28 13 3 17 -20 70 -34 79 -18 12 -62 9 -75 -4z
m70 -61 c4 -20 1 -22 -29 -19 -25 3 -33 9 -31 21 2 9 8 16 15 16 6 0 15 3 19
7 10 11 21 1 26 -25z"/>
<path d="M1433 1249 c-12 -12 -6 -49 8 -49 5 0 9 6 9 14 0 8 4 18 10 21 6 4 7
-1 3 -12 -3 -10 -3 -15 2 -11 4 4 14 0 22 -8 14 -13 17 -13 33 1 20 18 30 11
30 -22 0 -12 5 -23 10 -23 6 0 10 9 10 20 0 11 5 20 10 20 12 0 3 -49 -11 -64
-5 -6 -9 -25 -9 -44 0 -19 -4 -31 -10 -27 -13 8 -50 89 -50 109 0 10 -7 13
-22 11 -25 -5 -49 -25 -29 -25 7 0 10 -4 6 -9 -3 -5 3 -12 14 -16 10 -3 21
-18 24 -34 4 -16 14 -31 25 -33 15 -4 20 -18 25 -61 4 -31 3 -67 -3 -83 -9
-23 -15 -26 -40 -20 -31 6 -43 -9 -12 -17 9 -2 1 -2 -18 0 -42 5 -86 26 -83
39 2 15 -201 11 -220 -5 -13 -10 -24 -11 -48 -2 -39 13 -42 14 -34 1 3 -5 -1
-10 -9 -10 -8 0 -16 8 -18 18 -3 12 -7 8 -15 -14 -7 -19 -7 -37 -2 -45 7 -11
9 -9 9 6 0 17 2 17 10 5 8 -13 10 -12 10 4 0 14 5 17 23 12 12 -3 30 -6 40 -6
12 0 17 -8 17 -26 0 -24 -3 -26 -33 -21 -29 4 -33 2 -35 -19 -1 -13 3 -24 8
-24 6 0 10 6 10 13 0 6 11 13 24 13 19 1 25 -4 30 -27 7 -35 15 -36 38 -4 17
23 17 24 -2 30 -24 8 -33 35 -21 68 10 25 11 25 98 20 110 -7 145 -32 113 -83
-7 -11 -13 -12 -32 -2 -19 10 -130 32 -163 32 -5 0 -4 -5 3 -12 7 -7 40 -15
74 -20 35 -4 82 -10 106 -14 39 -6 44 -5 49 15 4 17 8 19 19 10 8 -6 11 -16 7
-22 -3 -6 -1 -7 5 -3 20 12 13 36 -13 46 -39 15 -30 20 24 13 54 -6 72 4 90
49 8 18 10 19 10 5 1 -27 32 -17 51 16 14 26 14 29 -3 41 -31 24 -37 67 -14
115 14 30 22 39 28 29 6 -8 9 3 9 30 0 26 -4 41 -10 37 -5 -3 -10 1 -10 9 0
18 -57 36 -92 29 -15 -3 -29 2 -37 11 -16 19 -33 20 -48 5z"/>
<path d="M806 1233 c-14 -14 -4 -23 23 -23 23 0 34 -8 51 -36 l22 -35 24 22
c13 12 24 29 24 38 0 12 -2 11 -13 -3 -16 -21 -34 -18 -61 12 -21 22 -59 36
-70 25z"/>
<path d="M1165 1185 c-14 -13 -25 -31 -25 -39 0 -18 27 -46 45 -46 8 0 17 -5
20 -10 4 -6 3 -10 -2 -9 -18 3 -33 -1 -33 -10 0 -18 49 -9 55 10 4 11 11 16
17 13 7 -4 8 -2 4 4 -4 6 -2 21 4 32 15 28 5 55 -26 68 -33 16 -31 16 -59 -13z
m50 -23 c16 -11 12 -46 -5 -49 -26 -5 -43 13 -35 36 6 21 22 27 40 13z"/>
<path d="M767 1176 c-3 -8 -16 -16 -29 -18 -22 -3 -21 -4 10 -23 22 -14 32
-26 28 -37 -2 -10 0 -18 5 -18 4 0 8 15 7 33 0 17 2 42 6 55 5 16 3 22 -7 22
-8 0 -17 -6 -20 -14z"/>
<path d="M1317 1176 c4 -13 3 -17 -5 -12 -7 4 -12 2 -12 -3 0 -6 -7 -11 -15
-11 -16 0 -16 -20 0 -32 6 -4 29 -8 52 -8 42 0 42 0 31 25 -6 14 -16 25 -21
25 -5 0 -16 8 -23 18 -13 16 -14 16 -7 -2z"/>
<path d="M1822 1182 c-10 -3 -10 -7 0 -20 12 -14 10 -14 -12 -3 -23 11 -23 11
-7 -3 17 -13 56 -12 43 2 -3 3 -1 10 4 17 10 12 -3 16 -28 7z"/>
<path d="M2864 1146 c-3 -14 -4 -33 -1 -43 3 -14 8 -9 20 19 21 46 21 48 2 48
-8 0 -17 -11 -21 -24z"/>
<path d="M1858 1138 c-28 -26 -48 -33 -48 -18 0 5 -7 7 -15 4 -8 -4 -21 -1
-29 5 -17 14 -29 2 -15 -16 15 -17 -5 -43 -32 -43 -23 0 -25 18 -4 26 29 12
15 23 -15 12 -17 -5 -42 -8 -55 -5 -28 5 -32 -5 -10 -23 8 -7 15 -23 15 -35 0
-18 4 -22 20 -18 11 3 20 0 20 -6 0 -8 16 -11 45 -9 25 2 45 7 45 12 0 4 9 6
19 3 25 -6 18 14 -10 31 -17 11 -20 11 -17 -4 2 -14 -5 -18 -37 -18 -45 -1
-66 18 -21 20 17 1 35 10 45 23 20 26 42 21 66 -16 11 -17 23 -23 36 -20 10 3
19 1 19 -4 0 -17 18 -9 34 16 16 24 16 24 -10 15 -38 -15 -71 -12 -78 6 -10
25 -8 26 34 23 44 -4 62 6 30 16 -26 8 -21 28 8 30 32 2 40 15 10 15 -14 0
-36 -10 -50 -22z"/>
<path d="M17 1079 c-9 -17 -17 -35 -17 -40 0 -14 28 -11 33 4 3 6 8 -3 12 -20
8 -35 12 -38 33 -25 9 6 6 20 -13 60 -14 29 -26 52 -28 52 -1 0 -10 -14 -20
-31z"/>
<path d="M1317 1083 c-4 -6 3 -22 14 -37 28 -36 22 -70 -14 -71 -33 -2 -49
-15 -18 -15 12 0 19 -4 16 -10 -3 -5 1 -10 10 -10 9 0 13 5 10 10 -4 6 6 10
23 10 20 0 32 7 42 25 7 13 17 22 21 19 9 -5 33 75 25 84 -3 3 -6 0 -6 -6 0
-7 -7 -12 -16 -12 -11 0 -14 -5 -10 -16 5 -12 2 -15 -10 -10 -8 3 -26 6 -38 6
-14 0 -27 9 -33 22 -6 13 -12 17 -16 11z"/>
<path d="M275 1050 c4 -14 3 -20 -3 -16 -5 3 -12 -1 -16 -9 -4 -10 1 -15 14
-15 15 0 20 7 20 24 0 14 -5 28 -11 32 -8 4 -9 -1 -4 -16z"/>
<path d="M1272 1026 c-12 -27 -15 -28 -72 -24 -33 2 -60 1 -60 -4 0 -4 5 -8
10 -8 6 0 10 -4 10 -9 0 -5 -13 -8 -30 -6 -20 3 -30 0 -30 -9 0 -10 19 -12 81
-8 94 5 117 20 109 67 l-5 29 -13 -28z"/>
<path d="M2805 1015 c4 -26 3 -35 -3 -26 -8 11 -14 11 -33 0 -13 -6 -39 -12
-59 -12 -21 0 -26 -2 -12 -4 33 -6 26 -47 -8 -51 -13 -2 -30 -11 -38 -20 -13
-16 -13 -16 -8 1 4 12 -2 21 -19 29 -26 12 -49 3 -27 -11 7 -4 10 -14 7 -22
-4 -12 9 -18 62 -28 75 -14 158 -44 188 -70 19 -16 19 -15 4 9 -9 14 -26 29
-37 35 -25 11 -25 7 -7 105 12 65 11 77 -2 90 -13 13 -14 10 -8 -25z m-38 -57
c4 -7 6 -21 5 -30 -2 -10 2 -18 9 -18 8 0 9 -3 4 -9 -6 -4 -26 -6 -47 -4 -35
5 -36 5 -17 24 10 10 19 26 19 34 0 18 16 20 27 3z"/>
<path d="M409 988 c5 -13 16 -25 26 -26 11 -3 15 0 11 7 -4 6 -3 11 3 11 12 0
26 -39 22 -65 -3 -16 -1 -17 13 -6 9 7 16 21 16 30 -1 23 -24 51 -43 51 -9 0
-19 5 -22 10 -3 6 -13 10 -20 10 -11 0 -12 -6 -6 -22z"/>
<path d="M1635 964 c-3 -25 -4 -48 -1 -51 10 -11 26 9 26 34 0 16 7 27 20 30
16 4 17 7 5 19 -26 27 -42 16 -50 -32z"/>
<path d="M2351 999 c-1 -14 28 -49 41 -49 3 0 3 12 0 26 -3 15 -10 23 -18 20
-7 -3 -15 0 -18 7 -2 7 -5 5 -5 -4z"/>
<path d="M1770 990 c0 -6 -5 -8 -11 -5 -15 10 -69 -15 -69 -32 0 -11 4 -12 23
-1 12 7 26 11 30 10 5 -1 6 2 2 8 -3 5 -1 10 5 10 7 0 14 -9 17 -20 3 -11 9
-17 14 -14 12 7 11 41 -1 49 -5 3 -10 1 -10 -5z"/>
<path d="M1030 978 c0 -4 14 -8 30 -8 17 0 30 4 30 9 0 5 -13 9 -30 9 -16 -1
-30 -5 -30 -10z"/>
<path d="M1416 974 c-23 -22 -20 -25 24 -22 43 3 47 7 28 26 -16 16 -33 15
-52 -4z"/>
<path d="M386 954 c-3 -8 0 -14 7 -15 7 0 -26 -9 -73 -20 -54 -12 -122 -19
-185 -19 -119 0 -135 -1 -135 -10 0 -4 28 -11 62 -16 62 -9 63 -10 66 -41 2
-18 4 -33 6 -33 1 0 42 9 92 20 49 11 113 25 142 32 30 6 51 16 49 22 -2 6
-11 10 -20 10 -9 -1 -13 4 -10 12 3 7 10 12 16 11 18 -3 21 49 3 56 -8 3 -17
-1 -20 -9z m-16 -72 c0 -14 -17 -21 -95 -35 -53 -10 -102 -20 -110 -24 -10 -3
-15 1 -15 14 0 16 8 20 38 22 30 1 64 6 80 10 1 1 5 2 10 2 4 1 23 8 42 15 47
17 50 17 50 -4z"/>
<path d="M705 946 l-50 -11 3 -39 c3 -32 1 -38 -13 -32 -9 3 -18 6 -20 6 -2 0
-7 16 -11 35 -3 19 -12 35 -19 35 -7 0 -16 -16 -19 -35 -4 -19 -12 -35 -18
-35 -55 0 133 -38 198 -40 18 0 25 43 10 59 -12 11 -14 11 -13 -5 2 -15 -6
-20 -35 -22 -33 -3 -37 -1 -43 28 -4 17 -4 34 -1 37 3 3 26 6 51 7 28 1 45 6
45 14 0 14 2 14 -65 -2z"/>
<path d="M1740 886 c0 -55 3 -64 20 -69 11 -3 20 -1 20 4 0 5 -8 9 -17 9 -17
1 -17 1 0 11 9 6 15 15 11 21 -4 7 -10 5 -16 -3 -6 -9 -8 4 -6 39 2 28 0 52
-4 52 -5 0 -8 -29 -8 -64z"/>
<path d="M1710 922 c0 -5 -11 -15 -25 -22 -14 -7 -25 -20 -26 -29 0 -10 -4 -8
-9 7 -13 31 -20 28 -11 -5 8 -28 -11 -83 -28 -83 -5 0 -11 -26 -15 -58 -6 -55
-8 -58 -34 -57 -25 0 -27 -3 -32 -49 -4 -39 -9 -50 -27 -57 -23 -8 -23 -8 -24
99 l-2 107 -8 -110 c-13 -161 -23 -176 -40 -59 -6 38 -12 96 -14 129 -2 42 -7
61 -17 63 -11 2 -14 -7 -13 -35 2 -43 -15 -123 -27 -123 -4 0 -8 6 -8 14 0 15
-21 26 -51 26 -11 0 -19 7 -19 16 0 13 -3 14 -15 4 -9 -7 -26 -9 -45 -5 -25 5
-30 11 -30 35 0 26 -2 28 -27 20 -64 -18 -165 -64 -170 -76 -2 -7 -12 -10 -20
-7 -9 4 -21 -1 -28 -11 -10 -14 -17 -15 -41 -5 -38 14 -293 59 -341 60 -21 1
-69 7 -108 14 -38 7 -90 16 -115 19 -76 10 1 -12 105 -29 50 -8 146 -24 215
-36 69 -11 144 -23 168 -26 23 -3 45 -9 47 -14 3 -4 7 -72 10 -151 3 -79 7
-189 10 -245 3 -62 1 -104 -5 -108 -11 -7 -16 16 -24 100 -4 41 -3 55 4 45 5
-8 10 -10 10 -4 0 5 -5 15 -11 21 -5 5 -11 60 -12 121 -1 62 -5 112 -9 112 -5
0 -8 12 -8 28 0 43 -11 50 -90 57 -41 4 -97 13 -124 21 -27 8 -61 14 -75 14
l-26 0 5 -107 c3 -60 4 -110 3 -112 -7 -10 -11 8 -16 66 -10 101 -36 121 -84
64 l-21 -26 -6 25 c-15 74 -16 110 -2 110 18 0 28 -38 15 -62 -8 -15 -6 -18
10 -18 17 0 18 4 10 35 -6 19 -8 39 -4 44 7 12 -14 18 -42 13 -19 -4 -23 -11
-24 -46 -2 -116 -6 -148 -19 -156 -12 -7 -9 -10 11 -10 14 0 33 8 42 18 19 20
23 37 7 27 -5 -3 -10 -1 -10 4 0 6 6 11 14 11 7 0 21 11 31 24 24 32 45 22 45
-20 0 -31 -5 -37 -42 -55 -39 -17 -40 -19 -13 -16 17 3 38 8 48 12 15 6 17 1
18 -36 1 -41 15 -115 18 -95 0 5 8 3 16 -4 12 -10 39 -4 144 29 72 23 133 46
137 52 9 15 -29 6 -155 -35 l-99 -32 -7 116 c-4 63 -8 126 -9 140 -1 22 3 25
34 23 19 -1 36 -6 38 -12 2 -6 9 -11 17 -11 14 0 25 -52 25 -127 0 -57 5 -64
35 -52 15 6 16 8 4 8 -13 1 -18 17 -23 77 -5 51 -3 81 4 88 7 7 13 7 18 1 4
-6 31 -11 61 -12 30 -1 58 -6 62 -10 4 -4 10 -80 13 -168 3 -88 9 -201 12
-252 l7 -91 34 21 34 22 -5 105 c-17 315 -18 380 -8 380 6 0 17 3 25 6 12 4
17 -6 22 -45 4 -28 12 -51 18 -51 7 0 -1 -10 -18 -21 l-30 -21 27 5 27 4 -6
-89 c-5 -71 -3 -88 8 -88 11 0 13 18 11 87 -3 75 -1 89 15 100 25 19 29 139 4
152 -14 8 -12 11 12 20 36 14 57 14 57 0 0 -5 6 -7 12 -3 20 13 77 16 143 10
22 -2 55 -4 73 -5 17 -1 32 -5 32 -11 0 -14 -54 -40 -83 -40 -14 0 -24 -6 -24
-15 0 -8 7 -15 14 -15 9 0 11 5 7 13 -6 9 -5 9 7 0 16 -13 62 -6 54 8 -5 7 25
29 39 29 15 0 4 -20 -11 -21 -10 0 -13 -3 -7 -5 8 -4 9 -17 2 -47 -16 -69 -18
-107 -8 -107 6 0 10 -4 10 -10 0 -5 -9 -10 -19 -10 -11 0 -23 -4 -26 -10 -11
-18 -22 -11 -20 13 2 12 10 45 19 71 9 27 14 51 12 54 -3 2 -8 -9 -12 -24 -3
-16 -14 -40 -22 -54 -9 -14 -17 -36 -18 -50 -1 -14 -5 -36 -10 -50 l-8 -25 30
19 c16 10 61 42 99 71 39 28 105 78 149 110 45 32 74 60 68 64 -16 10 -5 21
73 80 55 41 76 52 102 49 43 -3 54 10 15 18 -24 5 -32 12 -33 28 0 15 -2 16
-6 6 -6 -16 -23 -30 -35 -30 -5 0 -8 27 -8 60 0 47 3 60 15 60 8 0 15 9 15 20
0 11 -2 20 -5 20 -3 0 -5 -4 -5 -8z m-30 -137 c0 -25 -9 -43 -31 -66 -17 -17
-33 -29 -36 -26 -7 8 7 67 17 67 19 0 40 33 34 52 -4 14 -2 18 5 14 6 -4 11
-23 11 -41z m-520 -68 c0 -17 -61 -40 -74 -27 -10 10 33 31 47 23 4 -2 7 1 7
6 0 6 5 11 10 11 6 0 10 -6 10 -13z m250 -94 c0 -30 -57 -142 -72 -143 -7 0
15 82 35 129 5 14 9 30 8 35 -1 5 1 16 4 25 9 23 25 -5 25 -46z m-413 -15 c-3
-13 -10 -39 -15 -58 l-8 -35 -6 50 c-7 56 -4 65 19 65 11 0 14 -6 10 -22z
m423 -72 c0 -34 -23 -56 -36 -34 -4 7 -3 8 4 4 12 -7 15 3 12 42 -1 12 3 22 9
22 6 0 11 -15 11 -34z"/>
<path d="M437 891 c-5 -20 -2 -21 51 -20 32 1 45 4 30 6 -20 3 -25 8 -21 21 5
16 5 16 -12 0 -17 -16 -19 -16 -30 -1 -11 14 -13 14 -18 -6z"/>
<path d="M1600 889 c-8 -5 -39 -16 -68 -25 -47 -14 -53 -19 -48 -37 3 -12 6
-35 6 -52 l0 -30 20 33 c22 36 25 46 10 37 -5 -3 -10 -2 -10 3 0 5 11 14 25
20 34 16 44 15 22 -2 -10 -8 -15 -16 -10 -19 10 -7 44 22 61 52 16 27 13 34
-8 20z"/>
<path d="M1910 838 c0 -4 5 -9 10 -9 6 -1 14 -2 19 -3 18 -2 24 -16 7 -16 -9
0 -20 -8 -23 -17 -6 -15 -7 -15 -14 3 -5 13 -8 6 -8 -23 -1 -33 3 -43 15 -43
9 0 14 8 13 18 -1 9 -1 23 0 30 1 17 63 42 98 41 26 -2 25 -2 -7 -10 -26 -6
-18 -7 30 -4 36 3 57 1 47 -3 -11 -5 3 -8 38 -8 33 -1 53 2 47 8 -17 17 -272
51 -272 36z"/>
<path d="M0 821 c0 -12 5 -21 10 -21 6 0 10 5 10 10 0 6 8 10 18 10 18 0 37
-28 53 -75 5 -15 7 -10 8 17 1 40 -19 68 -49 68 -10 0 -25 3 -34 6 -12 4 -16
0 -16 -15z"/>
<path d="M1823 806 c-10 -31 -9 -41 2 -52 19 -20 21 -18 19 16 -2 25 2 30 21
30 13 0 26 7 29 16 6 16 5 16 -41 -3 -6 -2 -13 4 -15 14 -2 11 -7 4 -15 -21z"/>
<path d="M561 811 c-19 -12 7 -84 27 -76 8 3 19 2 25 -2 17 -11 76 -12 83 -2
3 5 -11 9 -30 9 -20 0 -36 5 -36 11 0 6 -7 9 -15 6 -16 -7 -64 27 -54 38 4 3
50 7 103 8 83 1 98 -1 109 -17 9 -13 16 -15 21 -8 4 6 -6 18 -23 27 -33 17
-186 21 -210 6z"/>
<path d="M1222 803 c2 -10 10 -18 18 -18 8 0 14 6 13 13 -2 6 4 12 13 12 13 0
15 -7 12 -31 -3 -19 2 -45 11 -63 l16 -31 3 49 c2 32 -1 52 -10 57 -10 7 -9 9
4 9 9 0 20 -11 25 -25 l8 -24 11 24 c11 23 10 24 -38 34 -71 16 -90 14 -86 -6z"/>
<path d="M1575 801 c-3 -12 -11 -19 -16 -15 -6 3 -9 -9 -7 -30 3 -49 11 -45
26 10 13 46 10 75 -3 35z"/>
<path d="M341 791 c-7 -5 -23 -7 -35 -4 -20 3 -20 3 -1 -5 11 -5 43 -12 70
-15 46 -6 48 -5 26 7 -14 8 -32 11 -40 8 -9 -3 -12 -1 -7 6 8 14 6 15 -13 3z"/>
<path d="M0 772 c0 -10 11 -29 25 -42 31 -29 32 -22 4 24 -24 41 -29 44 -29
18z"/>
<path d="M814 773 c-6 -10 -24 -17 -45 -18 -36 0 -59 -10 -59 -26 0 -12 37
-12 44 0 3 5 23 8 43 7 21 -1 53 4 72 11 37 16 37 29 0 15 -30 -11 -50 -5 -42
14 7 19 0 18 -13 -3z"/>
<path d="M2001 768 c-1 -21 -6 -28 -20 -28 -11 0 -22 8 -24 18 -4 13 -5 13 -6
-4 -1 -24 15 -29 124 -38 38 -3 47 -2 25 2 -19 4 -34 13 -32 20 1 7 -2 12 -8
12 -5 0 -10 -5 -10 -10 0 -18 -39 13 -43 35 -3 15 -5 13 -6 -7z"/>
<path d="M2060 775 c0 -8 8 -15 19 -15 10 0 24 -7 31 -15 7 -8 19 -15 26 -15
8 0 14 -4 14 -10 0 -19 18 -10 23 12 7 27 -8 47 -33 45 -16 -1 -17 -4 -7 -16
7 -9 -3 -6 -24 7 -43 26 -49 27 -49 7z"/>
<path d="M2751 748 c1 -35 2 -38 8 -18 4 14 13 25 21 25 19 0 17 -84 -2 -96
-20 -13 -29 -11 -35 11 -5 17 -7 18 -20 4 -9 -8 -22 -13 -29 -10 -8 3 -14 1
-14 -4 0 -12 30 -19 90 -22 l45 -3 3 48 c3 42 6 47 26 47 13 0 26 7 30 15 9
26 -22 45 -75 45 l-49 0 1 -42z"/>
<path d="M134 765 c3 -8 10 -66 16 -128 5 -61 13 -134 16 -162 7 -62 -1 -56
-20 16 l-15 54 0 -45 c-1 -94 14 -107 90 -80 l47 17 5 -36 c3 -20 9 -65 13
-100 5 -50 11 -65 25 -68 10 -3 16 -9 13 -14 -3 -5 -1 -9 5 -9 5 0 12 4 16 9
3 5 20 12 38 16 31 6 130 35 329 97 54 17 95 34 93 39 -3 4 -27 1 -53 -7 -26
-7 -90 -26 -142 -40 -163 -44 -224 -62 -241 -68 -13 -6 -18 16 -33 146 -10 84
-19 165 -21 180 -2 15 3 29 10 32 16 6 16 78 1 73 -6 -3 -19 0 -28 4 -19 10
-19 10 12 -266 10 -88 17 -161 15 -163 -3 -4 -21 77 -29 133 -2 17 -5 30 -6
30 -1 0 -4 16 -7 35 -2 19 -8 51 -13 70 -8 32 -9 30 -7 -19 2 -54 2 -54 -35
-67 -34 -12 -36 -11 -42 9 -3 12 -6 39 -6 59 0 33 4 38 35 49 23 9 35 19 35
32 0 17 -3 16 -31 -7 -40 -34 -49 -33 -49 9 0 33 1 34 25 25 14 -5 25 -6 25
-1 0 13 -28 33 -37 28 -10 -6 -10 40 0 49 3 4 9 -6 13 -21 5 -20 9 -24 16 -13
8 10 9 9 5 -4 -3 -9 1 -19 9 -22 10 -4 14 3 14 30 0 29 -5 36 -27 44 -46 16
-58 27 -57 49 0 12 -6 21 -14 21 -8 0 -12 -6 -8 -15z"/>
<path d="M203 751 c-1 -11 5 -22 13 -25 8 -3 14 1 14 10 0 12 7 15 25 12 14
-3 25 -1 25 3 0 5 -11 9 -24 9 -13 0 -31 2 -38 5 -8 3 -14 -2 -15 -14z"/>
<path d="M645 760 c3 -5 21 -10 38 -10 24 0 28 3 17 10 -20 13 -63 13 -55 0z"/>
<path d="M64 723 c2 -13 -1 -21 -8 -20 -6 1 -10 -4 -8 -12 2 -8 -1 -17 -7 -20
-15 -10 0 -25 36 -38 32 -11 32 -11 29 19 -2 17 -8 33 -13 37 -5 3 -14 17 -21
31 -11 23 -12 23 -8 3z"/>
<path d="M1496 725 c4 -8 10 -12 15 -9 5 3 9 -4 9 -15 0 -25 15 -28 24 -4 4
10 4 14 0 10 -4 -4 -13 2 -21 13 -16 23 -35 27 -27 5z"/>
<path d="M2523 687 c-3 -5 -25 -7 -49 -3 -24 3 -44 2 -44 -3 0 -5 28 -11 63
-15 34 -4 82 -9 106 -13 31 -4 42 -2 37 6 -4 6 -19 11 -34 11 -19 0 -23 3 -13
9 9 6 2 10 -23 13 -21 2 -40 0 -43 -5z"/>
<path d="M1600 631 c0 -12 2 -12 598 -107 18 -3 35 -11 38 -19 3 -7 -24 -78
-59 -157 -82 -180 -148 -340 -144 -345 2 -2 18 0 35 3 28 6 31 10 37 58 14
116 16 124 37 129 15 4 18 11 13 28 -5 15 -4 19 5 14 9 -5 10 -2 6 13 -4 12
-2 23 5 28 8 4 9 3 5 -4 -4 -7 -3 -12 3 -12 10 0 31 31 31 46 0 3 -8 0 -17 -7
-15 -12 -16 -12 -9 6 5 11 11 28 13 38 3 9 9 17 14 17 5 0 14 11 19 25 5 14
14 25 20 25 6 0 8 -4 5 -10 -10 -16 0 -12 25 10 36 31 45 4 22 -64 -10 -30
-14 -52 -9 -49 5 3 7 -7 4 -23 -15 -77 -17 -123 -7 -129 5 -3 10 -5 10 -3 0 2
7 61 15 133 8 72 15 137 15 145 0 9 3 10 9 5 6 -6 7 -33 2 -67 -4 -32 -4 -58
0 -58 9 0 15 24 22 87 l5 42 -59 12 c-39 8 -56 15 -52 23 4 6 7 20 8 31 0 21
1 21 55 11 26 -5 32 -4 23 5 -7 7 -115 27 -240 46 -230 33 -268 41 -224 42 44
2 12 14 -46 18 -32 2 -74 8 -93 13 -45 13 -140 13 -140 1z"/>
<path d="M2840 619 c0 -5 7 -12 15 -15 8 -4 15 -13 15 -21 0 -8 9 -27 19 -42
11 -15 23 -39 26 -53 6 -25 6 -26 -42 -22 -49 4 -49 0 0 -10 15 -4 25 -10 23
-15 -6 -9 54 -22 67 -14 4 2 1 16 -7 31 -9 15 -29 57 -45 93 -20 43 -37 68
-51 72 -11 3 -20 1 -20 -4z"/>
<path d="M53 590 c-14 -16 -32 -30 -40 -30 -7 0 -13 -11 -13 -26 0 -26 1 -26
24 -10 14 9 32 13 40 10 9 -3 16 -1 16 5 0 6 12 11 28 11 24 1 25 2 9 11 -15
9 -16 13 -5 26 12 15 11 15 -9 2 -26 -16 -41 -6 -23 16 23 28 0 15 -27 -15z"/>
<path d="M1087 587 c-3 -18 -7 -66 -7 -107 -5 -222 -5 -220 -27 -220 -5 0 -8
36 -7 80 0 44 -4 80 -8 80 -4 0 -8 -45 -8 -99 0 -77 -4 -103 -16 -115 -8 -9
-19 -16 -24 -16 -4 0 -11 -7 -14 -15 -8 -21 -1 -16 122 75 56 41 99 76 97 79
-3 2 -19 -5 -35 -17 -16 -12 -34 -22 -40 -22 -5 0 -10 -4 -10 -10 0 -5 -4 -10
-9 -10 -14 0 -13 202 0 211 8 5 9 16 2 35 -5 16 -7 40 -5 52 3 19 8 23 25 18
12 -3 30 -6 40 -6 14 0 17 -10 17 -70 0 -45 4 -70 11 -70 7 0 10 12 7 30 -3
18 0 31 9 34 10 4 11 -13 7 -87 -5 -64 -3 -89 4 -82 12 12 15 36 13 123 -1 55
-3 62 -21 62 -11 0 -20 4 -20 9 0 5 9 7 19 4 13 -3 23 2 31 17 7 13 8 20 2 16
-6 -3 -13 -2 -17 3 -3 6 -12 8 -19 5 -14 -5 -40 21 -33 33 3 4 -14 9 -38 10
-41 2 -43 1 -48 -30z"/>
<path d="M1920 601 c15 -9 209 -31 268 -31 17 0 32 4 32 9 0 5 -21 9 -47 9
-27 0 -86 5 -133 11 -103 13 -142 14 -120 2z"/>
<path d="M593 570 c-13 -5 -23 -17 -23 -25 0 -12 6 -15 23 -9 27 8 47 23 47
35 0 11 -18 11 -47 -1z"/>
<path d="M2350 535 c111 -17 167 -16 70 1 -41 7 -93 13 -115 12 -26 0 -10 -5
45 -13z"/>
<path d="M2435 500 c-6 -9 73 -25 82 -16 9 9 2 13 -39 19 -21 3 -40 2 -43 -3z"/>
<path d="M2550 481 c0 -6 10 -11 22 -11 21 0 104 -14 181 -30 20 -4 37 -5 37
-1 0 9 -77 26 -155 36 -27 3 -58 8 -67 11 -10 3 -18 1 -18 -5z"/>
<path d="M1583 436 c4 -14 57 -21 57 -8 0 5 -14 12 -30 14 -19 3 -29 1 -27 -6z"/>
<path d="M2829 433 c21 -4 23 -8 18 -46 -31 -231 -34 -277 -22 -350 5 -28 12
-37 26 -37 23 0 23 0 0 89 -19 73 -19 73 3 212 l22 139 -35 -1 c-26 -1 -29 -3
-12 -6z"/>
<path d="M2420 408 c54 -25 110 -32 110 -13 0 8 -20 15 -57 19 -32 4 -67 9
-78 11 -11 3 0 -5 25 -17z"/>
<path d="M2547 393 c-15 -14 -6 -23 13 -13 21 11 29 -3 9 -16 -8 -4 -7 -9 2
-14 7 -5 18 -2 26 6 8 8 23 14 34 14 22 0 23 -9 10 -130 -19 -166 -19 -180 -6
-180 9 0 15 30 20 100 4 55 11 100 16 100 13 0 11 -50 -5 -160 -8 -52 -13 -97
-10 -99 10 -10 17 13 20 66 2 32 7 99 11 150 5 50 5 89 1 87 -5 -3 -8 -13 -8
-22 0 -11 -3 -13 -10 -6 -7 7 -7 24 -2 50 7 30 11 35 17 21 7 -17 8 -17 20 0
13 17 14 17 21 -2 7 -16 -17 -255 -33 -328 -3 -17 -2 -18 5 -7 8 12 23 121 45
322 4 32 -2 35 -98 54 -80 16 -89 17 -98 7z"/>
<path d="M2243 238 c-50 -94 -82 -198 -61 -198 11 0 46 97 53 145 2 18 18 50
33 68 9 10 11 17 4 17 -6 0 -19 -15 -29 -32z"/>
<path d="M2156 186 c-14 -22 -35 -93 -36 -121 0 -5 7 1 16 13 8 12 16 37 16
54 1 18 7 39 15 46 12 13 18 32 9 32 -2 0 -11 -11 -20 -24z"/>
<path d="M2247 145 c-23 -48 -23 -145 -1 -145 14 0 16 9 11 62 -4 41 -3 56 3
43 7 -15 9 -9 9 28 1 26 0 47 -2 47 -2 0 -11 -16 -20 -35z"/>
<path d="M960 69 c-12 -8 -10 -10 10 -5 39 8 70 -3 70 -27 0 -24 13 -14 15 12
1 10 -3 18 -9 19 -6 1 -24 4 -41 7 -16 3 -37 1 -45 -6z"/>
<path d="M2144 36 c-3 -9 -10 -13 -15 -10 -5 3 -9 -2 -9 -10 0 -23 28 -19 35
5 8 25 -2 39 -11 15z"/>
</g>
</svg>
